<?xml version="1.0" encoding="UTF-8" standalone="no"?>
<!-- Created with Inkscape (http://www.inkscape.org/) -->

<svg
   xmlns:dc="http://purl.org/dc/elements/1.1/"
   xmlns:cc="http://creativecommons.org/ns#"
   xmlns:rdf="http://www.w3.org/1999/02/22-rdf-syntax-ns#"
   xmlns:svg="http://www.w3.org/2000/svg"
   xmlns="http://www.w3.org/2000/svg"
   xmlns:sodipodi="http://sodipodi.sourceforge.net/DTD/sodipodi-0.dtd"
   xmlns:inkscape="http://www.inkscape.org/namespaces/inkscape"
   width="447.50586"
   height="226.72565"
   id="svg2"
   version="1.1"
   inkscape:version="0.48.4 r9939"
   sodipodi:docname="web-server.svg">
  <defs
     id="defs4" />
  <sodipodi:namedview
     id="base"
     pagecolor="#ffffff"
     bordercolor="#666666"
     borderopacity="1.0"
     inkscape:pageopacity="0.0"
     inkscape:pageshadow="2"
     inkscape:zoom="1.979899"
     inkscape:cx="233.85954"
     inkscape:cy="112.45277"
     inkscape:document-units="px"
     inkscape:current-layer="layer1"
     showgrid="false"
     inkscape:window-width="1920"
     inkscape:window-height="1021"
     inkscape:window-x="0"
     inkscape:window-y="27"
     inkscape:window-maximized="1"
     fit-margin-top="0"
     fit-margin-left="0"
     fit-margin-right="0"
     fit-margin-bottom="0" />
  <metadata
     id="metadata7">
    <rdf:RDF>
      <cc:Work
         rdf:about="">
        <dc:format>image/svg+xml</dc:format>
        <dc:type
           rdf:resource="http://purl.org/dc/dcmitype/StillImage" />
        <dc:title></dc:title>
      </cc:Work>
    </rdf:RDF>
  </metadata>
  <g
     inkscape:label="Layer 1"
     inkscape:groupmode="layer"
     id="layer1"
     transform="translate(-65.479601,-139.94697)">
    <path
       style="fill:#0000ff;fill-opacity:1;stroke:#000000;stroke-width:0.1;stroke-miterlimit:4;stroke-opacity:1;stroke-dasharray:none;stroke-dashoffset:0"
       id="path3157"
       d="m 80.094543,304.65394 c -1.96286,-2.03016 -3.649621,-4.28972 -5.18615,-6.65207 -2.06869,-3.22953 -3.80104,-6.64796 -5.215674,-10.20846 -1.473788,-3.99371 -2.223566,-8.20198 -2.892626,-12.3914 -0.457846,-4.28391 -1.214834,-8.55965 -1.257077,-12.87876 -0.008,-0.82124 0.03857,-1.64209 0.05786,-2.46314 0.182576,-3.21144 1.038724,-6.30093 2.6639,-9.08759 1.196119,-2.05095 1.666363,-2.42465 3.226922,-4.23536 5.708173,-6.00324 13.14576,-9.71146 20.311162,-13.64222 4.658435,-2.19184 9.598,-3.75405 14.64716,-4.75078 3.3849,-0.6682 6.39035,-1.00229 9.822,-1.45256 13.02823,-1.48815 26.09779,-2.56936 39.16639,-3.62807 7.97821,-0.50684 15.95843,-1.29718 23.9602,-1.32843 4.1402,-0.0162 5.35906,0.12514 9.40952,0.37929 8.58438,0.74583 16.56867,4.02395 24.37557,7.45002 4.90503,2.37962 9.63897,5.17325 13.9126,8.5726 2.42398,1.92809 3.03715,2.61956 5.23779,4.74417 4.04545,4.2878 6.97537,9.42943 9.0043,14.9452 0.41199,1.12002 0.74073,2.26893 1.1111,3.40339 2.03533,6.79139 2.45564,13.87519 2.70643,20.91457 0.15423,6.72263 0.12594,13.44772 0.14824,20.17167 0.0997,3.40741 -0.0695,6.82661 0.13535,10.23007 0.23131,2.44781 1.18345,4.66741 2.63206,6.62782 0.55658,0.56809 0.76853,0.86781 1.46708,1.25902 1.42933,0.80048 4.2362,1.07029 5.82051,1.33587 9.46011,1.20435 19.02287,1.17152 28.53999,1.01024 13.21224,-0.35506 26.36961,-1.7323 39.47402,-3.38529 11.1433,-1.31598 22.28492,-2.6341 33.39652,-4.19764 10.14528,-1.52952 20.26391,-3.22318 30.38156,-4.92347 9.67223,-1.5385 19.34437,-3.0581 28.96851,-4.87695 8.85471,-1.69643 17.62054,-3.81785 26.36676,-5.99639 6.53594,-1.56634 12.91024,-3.70304 19.36451,-5.55507 4.63135,-1.37658 9.31069,-2.57453 13.8917,-4.11565 2.08992,-0.71664 4.24299,-1.20966 6.37383,-1.78134 0,0 -4.11996,3.15631 -4.11996,3.15631 l 0,0 c -2.10092,0.52712 -4.20846,1.0342 -6.26035,1.7366 -4.56879,1.4921 -9.22315,2.68519 -13.8322,4.0438 -6.40206,1.83754 -12.74375,3.89288 -19.23045,5.42947 -8.73116,2.14586 -17.47809,4.24662 -26.31395,5.92254 -9.62141,1.8048 -19.2909,3.30848 -28.9563,4.85591 -10.10638,1.68803 -20.21284,3.3774 -30.34849,4.8828 -11.08648,1.5373 -22.20053,2.84609 -33.31883,4.13099 -13.10453,1.60564 -26.25918,2.9176 -39.46252,3.31826 -9.68487,0.2094 -19.41321,0.31112 -29.05781,-0.74289 -1.87464,-0.2791 -4.43054,-0.42766 -6.09133,-1.45289 -0.72013,-0.44455 -0.96523,-0.78868 -1.53947,-1.4009 -1.47073,-2.05841 -2.47471,-4.36183 -2.74726,-6.89954 -0.22944,-3.44572 0.0745,-6.90537 0.0351,-10.35552 0.0648,-6.73203 0.11137,-13.46594 -0.0566,-20.19693 -0.25345,-6.99499 -0.64437,-14.03924 -2.64262,-20.7949 -0.36287,-1.12462 -0.68232,-2.26418 -1.0886,-3.37384 -1.99811,-5.45732 -4.92839,-10.51991 -8.92176,-14.76041 -2.16178,-2.10383 -2.78224,-2.80583 -5.16377,-4.71703 -4.22388,-3.38968 -8.91192,-6.16996 -13.77788,-8.52757 -7.78742,-3.36737 -15.73742,-6.574 -24.2783,-7.31699 -4.0762,-0.27129 -5.128,-0.40641 -9.30096,-0.40682 -7.93586,-7.7e-4 -15.856,0.71516 -23.76847,1.21981 -13.12873,1.05407 -26.25614,2.17162 -39.3307,3.78102 -3.63464,0.51002 -6.33183,0.8226 -9.89754,1.56789 -5.052554,1.05606 -9.992363,2.66429 -14.647433,4.89928 0.331734,-0.25401 1.36996,-0.94679 0.995204,-0.76205 -1.056748,0.52095 -2.049057,1.16426 -3.05506,1.77749 -3.558085,2.16891 -6.923255,4.65093 -9.845536,7.635 -0.597303,0.66852 -1.236456,1.30187 -1.79191,2.00555 -2.557411,3.23983 -3.89216,6.89513 -4.213021,10.98845 -0.02761,0.81277 -0.08327,1.62506 -0.08284,2.4383 0.0023,4.30111 0.771439,8.55655 1.239394,12.81904 0.672899,4.14563 1.463982,8.29775 2.924108,12.24916 1.386805,3.53259 3.038652,6.95918 5.155884,10.11987 1.556137,2.31441 3.21251,4.58312 5.282695,6.47221 0,0 -4.512461,2.76524 -4.512461,2.76524 z"
       inkscape:connector-curvature="0" />
    <g
       id="g3125"
       transform="matrix(0.99568431,0.09280497,-0.09280497,0.99568431,76.355326,-62.831214)">
      <path
         inkscape:connector-curvature="0"
         id="path2985"
         d="m 54.043161,318.48636 c 8.416768,7.74984 16.523979,16.20321 27.355253,20.6116 8.051891,4.88416 16.986077,13.73851 26.530616,10.97191 5.89116,-4.34175 6.45092,-2.69071 12.76363,-7.61797 4.65606,-4.86163 24.66371,-9.46203 13.27458,-17.37645 -8.91756,-7.56946 -19.67826,-11.43916 -30.18284,-16.13099 -6.928442,-4.08228 -14.205603,-7.23775 -21.608329,-10.17284 -8.824903,-1.99572 -16.978303,-8.86824 -26.178334,-7.58221 -5.7754,5.36231 -10.553163,11.51955 -17.656583,15.40916 1.244545,7.19814 11.255979,7.24199 15.702007,11.88779 z"
         style="fill:#c8b7b7;stroke:#000000;stroke-width:1px;stroke-linecap:butt;stroke-linejoin:miter;stroke-opacity:1" />
      <path
         inkscape:connector-curvature="0"
         id="path2987"
         d="m 36.365492,308.38483 c 3.101778,5.93529 1.668006,17.54576 2.027235,26.69713 -0.287542,11.44791 0.431271,23.32241 -1.483062,34.43931 0.191407,8.37708 -2.095056,19.39416 1.713084,26.01045 12.448988,6.90419 26.32126,10.52479 39.375921,16.01562 7.383213,2.10882 19.611653,17.46758 21.641244,2.40174 2.329566,-7.70644 4.021926,-15.62737 3.395646,-23.74189 2.52948,-6.86401 1.63956,-14.77016 2.56535,-22.25856 -0.0556,-7.17834 3.30676,-13.83609 2.39239,-20.95098 -6.7553,-2.1737 -11.039861,-8.68248 -17.367752,-11.96059 -10.001389,-3.20374 -18.65647,-8.31197 -26.976249,-14.55379 -9.822448,-1.87432 -17.2843,-9.49316 -26.123181,-12.09844 -0.386875,0 -0.773751,0 -1.160626,0 z"
         style="fill:#c8b7b7;stroke:#000000;stroke-width:1px;stroke-linecap:butt;stroke-linejoin:miter;stroke-opacity:1" />
      <path
         inkscape:connector-curvature="0"
         id="path2989"
         d="m 97.984797,339.69956 c -0.465288,17.54455 1.073892,35.20162 -1.069925,52.65546 -3.38647,9.46205 0.392016,19.27134 0.105645,28.52201 10.458573,0.30104 22.493623,-0.0786 31.851553,-5.92504 11.58315,-2.68252 8.49472,-15.55572 10.02477,-24.3017 -0.0862,-9.27868 -0.005,-18.53993 1.00929,-27.71722 4.21746,-7.7626 2.82572,-17.09108 0.2106,-25.03917 -1.43819,-4.26938 1.314,-15.89843 -6.31925,-9.06196 -9.47941,2.10429 -15.15843,11.26773 -24.70389,12.78553 -4.27593,-0.1365 -8.34463,0.93161 -12.624022,0.60747"
         style="fill:#c8b7b7;stroke:#000000;stroke-width:1px;stroke-linecap:butt;stroke-linejoin:miter;stroke-opacity:1" />
      <g
         transform="matrix(0.54702282,0,0,0.54702282,-37.300607,261.89525)"
         id="g3084">
        <g
           id="g3035"
           transform="translate(-41.428571,-64.642857)">
          <path
             inkscape:connector-curvature="0"
             id="path2991"
             d="m 229.8097,202.31882 c 1.79749,8.27063 -3.22257,15.22506 -1.42582,23.24069 0.19749,7.93495 2.07257,15.89021 0.98084,23.8009 1.47627,9.95229 -8.05503,0.30488 -11.25652,-2.08563 -6.02287,-3.12929 -12.78166,-4.98803 -17.82198,-9.63947 -6.49691,-2.8476 -12.77783,-6.24052 -19.30112,-8.93691 -0.58962,0.20328 -2.0602,-0.16864 -1.68302,-1.12577"
             style="fill:none;stroke:#000000;stroke-width:1px;stroke-linecap:butt;stroke-linejoin:miter;stroke-opacity:1" />
          <path
             inkscape:connector-curvature="0"
             id="path2993"
             d="m 179.47182,244.72883 c 4.78306,1.12118 12.77674,3.26249 18.93487,3.94634 8.68914,2.40473 17.76237,3.00919 26.43659,5.50818 7.29047,1.96945 -3.75713,10.7024 -5.55251,14.40056 -3.45436,7.05919 -7.73527,13.70585 -10.27479,21.17879 -0.55184,1.61562 -1.53181,3.04499 -2.28826,4.56884"
             style="fill:none;stroke:#000000;stroke-width:1px;stroke-linecap:butt;stroke-linejoin:miter;stroke-opacity:1" />
          <path
             inkscape:connector-curvature="0"
             id="path2995"
             d="m 250.51783,285.15132 c -2.00789,-4.83916 -10.08683,-8.80238 -11.87346,-14.30287 -3.29363,-5.30885 -4.25258,-12.63084 -9.78634,-16.23444 7.13453,1.44788 15.02587,-1.09833 21.90678,-3.42067 6.2384,-2.75901 13.15817,-2.90056 19.80236,-3.99031 3.43203,0.0362 6.88759,-0.69727 10.25524,-1.44766"
             style="fill:none;stroke:#000000;stroke-width:1px;stroke-linecap:butt;stroke-linejoin:miter;stroke-opacity:1" />
          <path
             inkscape:connector-curvature="0"
             id="path2997"
             d="m 226.77925,254.84675 c 8.88334,-4.75407 17.88093,-9.25905 26.95131,-13.60063 4.5455,-2.23001 8.16846,-5.77758 12.94971,-7.61258"
             style="fill:none;stroke:#000000;stroke-width:1px;stroke-linecap:butt;stroke-linejoin:miter;stroke-opacity:1" />
          <path
             inkscape:connector-curvature="0"
             id="path2999"
             d="m 223.24371,289.19193 c 0.45193,-7.14632 0.89393,-14.48252 4.09483,-21.07183 1.86927,-3.46279 5.48666,-16.9475 -1.81967,-10.60546 -7.82414,4.59797 -17.11674,4.95146 -25.76928,6.94364 -0.2509,-0.39469 -5.22966,0.41158 -2.76984,0.48999"
             style="fill:none;stroke:#000000;stroke-width:1px;stroke-linecap:butt;stroke-linejoin:miter;stroke-opacity:1" />
          <path
             inkscape:connector-curvature="0"
             id="path3001"
             d="m 228.79955,255.8569 c 5.89085,-7.74142 12.86064,-14.76219 17.25916,-23.51785 1.35379,-1.90079 2.41285,-4.01071 3.95405,-5.77657"
             style="fill:none;stroke:#000000;stroke-width:1px;stroke-linecap:butt;stroke-linejoin:miter;stroke-opacity:1" />
          <path
             inkscape:connector-curvature="0"
             id="path3003"
             d="m 259.6092,271.00919 c -6.66624,-4.05932 -14.27754,-6.67625 -20.63533,-11.02775 -8.54005,-3.86966 -14.70676,-10.27339 -18.4738,-18.82197 -4.19957,-4.87916 -6.90491,-11.16158 -10.38834,-16.11222"
             style="fill:none;stroke:#000000;stroke-width:1px;stroke-linecap:butt;stroke-linejoin:miter;stroke-opacity:1" />
          <path
             inkscape:connector-curvature="0"
             id="path3005"
             d="m 223.57143,245.04075 c 3.67328,2.6736 6.12914,-3.30615 8.64357,1.52839 5.83006,0.20172 5.41378,9.21858 1.66035,12.06954 -4.85614,0.77682 -11.87876,2.12662 -10.61455,-5.89946 -1.18677,-2.86228 2.14997,-4.94355 0.31063,-7.69847 z"
             style="fill:none;stroke:#000000;stroke-width:1px;stroke-linecap:butt;stroke-linejoin:miter;stroke-opacity:1" />
          <path
             inkscape:connector-curvature="0"
             id="path3007"
             d="m 215.89286,252.18361 c 5.68418,-1.777 2.68349,-11.33556 9.93323,-10.36862 5.63975,-4.80299 13.68232,2.83674 15.92484,7.1973 -1.08103,4.09535 5.73546,5.62395 -0.19025,8.14864 -1.12736,3.59241 -5.61748,3.98089 -6.94788,6.66412 -4.72864,-0.27266 -7.49669,0.14821 -12.20688,-0.12149 0.17062,-4.08178 -3.91629,-3.82807 -2.19291,-8.12719 -1.20332,-1.17576 -2.28426,-3.77528 -4.32015,-3.39276 z"
             style="fill:none;stroke:#000000;stroke-width:1px;stroke-linecap:butt;stroke-linejoin:miter;stroke-opacity:1" />
          <path
             inkscape:connector-curvature="0"
             id="path3009"
             d="m 217.67857,237.36218 c 6.25682,6.34493 10.3559,-10.64691 13.6683,-1.27957 2.36832,2.73447 10.09518,6.58103 10.30814,4.65974 4.9483,3.83964 -1.73503,12.23307 6.1875,12.40839 -1.56474,5.37713 -2.11823,11.33311 -8.1675,12.71168 -1.78982,5.61105 -10.1485,-1.35418 -13.39914,3.84936 -4.17051,-2.32797 -9.37343,-4.76714 -11.4383,-9.13136 3.85235,-5.33994 -3.93884,-9.5388 0.58758,-14.27055 -2.78939,-2.43495 5.41143,-5.51334 1.53914,-9.84055 l 0,-0.41544 0,-0.29884"
             style="fill:none;stroke:#000000;stroke-width:1px;stroke-linecap:butt;stroke-linejoin:miter;stroke-opacity:1" />
          <path
             inkscape:connector-curvature="0"
             id="path3011"
             d="m 210.35714,262.36218 c 7.4433,1.0556 1.10732,16.27476 10.61426,10.66654 6.53835,0.65537 16.23278,-2.77425 20.44869,-1.18324 2.73463,-4.72875 9.14265,-6.33047 6.65754,-13.13511 1.7221,-5.24127 3.43982,-9.59801 1.44785,-14.94653 0.39416,-4.65088 -9.17079,-2.25471 -8.38346,-8.86429 -6.687,-0.95256 -13.66149,-3.98789 -20.42773,-1.1088 -6.36732,-2.04825 -8.27558,6.09468 -12.764,8.6173 3.0097,5.53545 2.53649,13.18475 0.57761,19.12233 0.67241,4.45665 6.29917,8.90752 5.89364,15.00914 4.35983,3.02046 12.3815,3.72435 18.2898,1.24317 5.22349,-2.36076 12.55134,3.80885 13.70826,-4.1723 2.9828,-4.25163 9.36278,-4.98695 6.22835,-11.44956 -0.71605,-8.41447 4.22191,-17.24063 -4.2134,-23.4371 -2.29715,-7.49621 -11.1773,-3.46324 -15.97807,-8.73879 -5.85039,-2.60229 -14.87681,-2.21504 -20.35407,1.11087 -3.2825,5.94472 -10.19322,9.45707 -7.38777,17.26621 1.28425,5.11178 1.57125,10.77563 0.56716,15.84669 5.40897,4.2598 3.01222,13.26887 8.23338,17.88493 7.55992,-0.43361 15.16467,2.71391 22.91244,0.25899 5.85644,-0.73864 13.75331,2.76079 14.06421,-5.38087 1.9737,-2.92282 5.02771,-4.91168 7.00817,-7.82341"
             style="fill:none;stroke:#000000;stroke-width:1px;stroke-linecap:butt;stroke-linejoin:miter;stroke-opacity:1" />
        </g>
        <path
           style="fill:#000000;stroke:#000000;stroke-width:1px;stroke-linecap:butt;stroke-linejoin:miter;stroke-opacity:1"
           d="m 226.02163,183.12592 c 1.06673,1.43315 0.54135,3.35121 0.49879,4.99705 -0.0799,1.38206 0.12662,2.74101 0.14509,4.11362 0.19138,1.24547 0.1725,2.61702 0.0186,3.8602 -0.67182,0.79984 0.40969,3.14705 -1.1352,2.19407 -1.56328,0.31849 -2.44539,2.09374 -1.59811,3.44865 0.58885,1.42499 2.46562,2.60634 4.04245,1.8687 1.53731,-0.4859 2.09534,-2.5748 0.9802,-3.7457 -0.77766,-1.4274 -2.33905,-1.27713 -3.7094,-1.33177"
           id="path3048"
           inkscape:connector-curvature="0" />
        <path
           style="fill:none;stroke:#000000;stroke-width:1px;stroke-linecap:butt;stroke-linejoin:miter;stroke-opacity:1"
           d="m 224.63267,200.04597 c -0.58229,-0.37892 -0.80467,-1.09613 -1.73905,-0.82771 -1.39029,-0.65947 -3.1224,1.20811 -2.68036,2.3429"
           id="path3050"
           inkscape:connector-curvature="0" />
        <path
           style="fill:none;stroke:#000000;stroke-width:1px;stroke-linecap:butt;stroke-linejoin:miter;stroke-opacity:1"
           d="m 224.63267,201.43493 c -1.52869,-0.19871 -3.07278,0.58714 -2.52565,2.28875 -0.0387,0.38547 0.22026,0.92768 0.63162,0.48917"
           id="path3052"
           inkscape:connector-curvature="0" />
        <path
           style="fill:none;stroke:#000000;stroke-width:1px;stroke-linecap:butt;stroke-linejoin:miter;stroke-opacity:1"
           d="m 225.26402,203.2027 c -0.70133,0.50777 -2.16997,2.04965 -0.88389,2.52538"
           id="path3054"
           inkscape:connector-curvature="0" />
        <path
           style="fill:none;stroke:#000000;stroke-width:1px;stroke-linecap:butt;stroke-linejoin:miter;stroke-opacity:1"
           d="m 226.90552,204.21285 c -0.65995,0.66128 -0.64838,2.72289 0.75761,2.02031"
           id="path3056"
           inkscape:connector-curvature="0" />
        <path
           style="fill:none;stroke:#000000;stroke-width:1px;stroke-linecap:butt;stroke-linejoin:miter;stroke-opacity:1"
           d="m 228.54701,198.2782 c 1.08795,-0.33382 2.61528,-1.71224 3.53986,-0.57949 0.38785,0.33415 0.34992,0.77652 0.24824,1.21084"
           id="path3058"
           inkscape:connector-curvature="0" />
        <path
           style="fill:none;stroke:#000000;stroke-width:1px;stroke-linecap:butt;stroke-linejoin:miter;stroke-opacity:1"
           d="m 229.68344,200.92985 c 0.94328,-0.39865 0.6616,-0.80805 1.86807,-1.03729 0.36673,-0.0638 1.1854,1.14728 0.90983,1.03731"
           id="path3060"
           inkscape:connector-curvature="0" />
        <path
           style="fill:none;stroke:#000000;stroke-width:1px;stroke-linecap:butt;stroke-linejoin:miter;stroke-opacity:1"
           d="m 229.93597,202.69762 c 0.49306,-1.46668 2.35774,-0.48681 2.65167,0"
           id="path3062"
           inkscape:connector-curvature="0" />
        <path
           style="fill:none;stroke:#000000;stroke-width:1px;stroke-linecap:butt;stroke-linejoin:miter;stroke-opacity:1"
           d="m 227.28432,198.65701 c 0.78511,-1.08827 1.17679,-2.66159 2.5712,-3.03275 0.28787,0.0266 0.60309,0.0709 0.83807,0.25483"
           id="path3064"
           inkscape:connector-curvature="0" />
      </g>
      <path
         inkscape:connector-curvature="0"
         id="path3113"
         d="m 107.07617,350.81124 c 0.23335,1.02941 -1.74356,1.7849 -0.75072,2.87645 0.62281,0.78435 2.74428,1.21396 2.9329,0.004 0.87276,-0.58796 1.81255,-1.12545 1.35849,-2.36372 0.24121,-1.36468 -0.95537,-1.85399 -2.09083,-1.41814 -1.19439,-0.0776 -2.07717,1.75489 -0.32789,1.12875 1.40639,-0.39023 2.87792,-0.15817 4.30333,-0.21749 1.20293,-0.4145 2.36057,-1.01863 3.40784,-1.7445 1.0025,-0.94639 2.73883,0.78669 3.38097,-0.89862 0.72482,-0.95069 1.98848,-0.0797 2.96391,-0.41244 1.07182,-0.3655 2.03363,-1.00612 2.84303,-1.80787 0.29085,-0.40869 0.7601,-0.12032 1.17187,-0.19751"
         style="fill:#ff0000;stroke:#000000;stroke-width:1px;stroke-linecap:butt;stroke-linejoin:miter;stroke-opacity:1" />
      <path
         inkscape:connector-curvature="0"
         id="path3117"
         d="m 106.06602,413.94577 c -0.89788,-8.22322 -0.38327,-16.49779 -0.50482,-24.74873 1.85959,-3.08323 -1.26721,-8.01835 2.03702,-9.93883 3.79752,-1.17695 7.89184,-1.19124 11.52293,-3.01495 4.42719,-1.38506 8.36971,-4.38715 13.18136,-4.34525 -1.98321,4.02375 -7.78679,1.95779 -11.28167,3.73585 -4.40005,1.6449 -10.3101,4.18751 -11.97069,8.60735 1.34374,2.58577 10.50935,-1.55072 4.62285,1.76619 -3.12385,1.14955 -7.3381,9.80302 -1.2583,8.20156 1.15866,-0.2428 -8.43044,3.43818 -3.91542,4.36614 -0.0789,1.5719 0.24491,6.79278 0.0945,9.84623 l -10e-4,0.2562 -9.2e-4,0.2177"
         style="fill:#ac9393;stroke:#000000;stroke-width:1px;stroke-linecap:butt;stroke-linejoin:miter;stroke-opacity:1" />
      <path
         d="m 111.11678,366.97369 c 0,2.51052 -1.92211,4.54569 -4.29315,4.54569 -2.37104,0 -4.29315,-2.03517 -4.29315,-4.54569 0,-2.51051 1.92211,-4.54568 4.29315,-4.54568 2.37104,0 4.29315,2.03517 4.29315,4.54568 z"
         sodipodi:ry="4.5456862"
         sodipodi:rx="4.2931485"
         sodipodi:cy="366.97369"
         sodipodi:cx="106.82363"
         id="path3123"
         style="fill:#ac9393;fill-opacity:1;stroke:#ff0000;stroke-width:2;stroke-miterlimit:4;stroke-opacity:1;stroke-dasharray:2, 2;stroke-dashoffset:0"
         sodipodi:type="arc" />
    </g>
    <g
       id="g4104"
       transform="translate(72.478445,-7.0710678)">
      <path
         style="fill:#ff00ff;stroke:#000000;stroke-width:1px;stroke-linecap:butt;stroke-linejoin:miter;stroke-opacity:1"
         d="m 345.35714,263.07647 c -6.63801,5.40471 -10.49276,13.81385 -10.57208,22.34534 -3.06932,8.04455 -1.16349,19.08784 9.65118,18.10223 7.84339,2.72383 16.74904,0.31179 24.88454,1.76857 9.01436,1.00287 18.1022,2.63957 27.15639,1.0226 9.02974,-0.0454 18.06259,-0.0146 27.09426,-0.0245 7.36632,-1.07606 19.57966,-3.42677 15.68822,-13.80453 -2.77644,-7.19043 -5.14993,-15.26428 -11.22826,-20.16587 -1.14993,-1.39248 -2.46321,-2.62138 -3.74569,-3.88677"
         id="path4059"
         inkscape:connector-curvature="0" />
      <path
         style="fill:#ffccaa;stroke:#000000;stroke-width:1px;stroke-linecap:butt;stroke-linejoin:miter;stroke-opacity:1"
         d="m 348.92857,265.57647 c 0.0921,-6.78335 1.0132,-13.45645 2.93861,-19.9486 2.13975,-7.68553 2.81323,-16.31963 7.70429,-22.86525 6.4196,-7.1209 16.7491,-7.64431 25.36492,-10.42723 10.94087,-0.71346 21.17006,7.39159 24.12513,17.75652 2.81174,7.43071 6.2296,14.81847 7.29845,22.74747 1.88765,5.03172 -4.31275,11.34286 -0.64568,15.23709"
         id="path4043"
         inkscape:connector-curvature="0" />
      <path
         style="fill:#ffeeaa;stroke:#000000;stroke-width:1px;stroke-linecap:butt;stroke-linejoin:miter;stroke-opacity:1"
         d="m 377.85714,219.86218 c -3.0994,1.88707 -8.13685,11.54155 -2.24046,4.76291 3.92141,-4.30138 9.33418,-14.32953 12.76583,-3.90502 4.1212,4.59476 -3.39156,-7.30713 3.50942,-3.45506 3.73999,-0.41822 12.75517,2.98713 13.38476,2.23706 -4.50183,-0.0315 -15.7317,-4.52398 -5.28272,-6.36546 4.50604,-0.34714 9.79586,-5.10258 2.23482,-3.49815 -6.43937,1.30156 -13.078,1.57914 -19.46575,3.13182 -3.52851,0.76046 -3.08442,-10.46931 -6.26155,-7.98732 0.17487,3.84112 7.4336,11.2671 -0.38737,8.31839 -3.13617,-1.2908 -13.18961,0.87705 -12.76542,1.03676 6.20201,0.82026 12.40485,1.58294 18.62302,1.75004 1.34173,0.29048 2.71922,0.58737 4.09971,0.4026"
         id="path4045"
         inkscape:connector-curvature="0" />
      <path
         style="fill:#ffffff;stroke:#000000;stroke-width:1px;stroke-linecap:butt;stroke-linejoin:miter;stroke-opacity:1"
         d="m 371.78571,235.57647 c -9.86779,1.20816 -2.46553,14.29383 4.67189,8.52346 4.81653,-2.46046 -1.09037,-12.26387 -4.67189,-8.52346 z"
         id="path4047"
         inkscape:connector-curvature="0" />
      <path
         style="fill:#ffffff;stroke:#000000;stroke-width:1px;stroke-linecap:butt;stroke-linejoin:miter;stroke-opacity:1"
         d="m 392.14286,236.29075 c -10.25631,-1.86201 -7.1414,14.52224 2.04696,9.83801 6.39294,-6.04272 2.96548,-10.30085 -5.26125,-9.83801"
         id="path4049"
         inkscape:connector-curvature="0" />
      <path
         style="fill:none;stroke:#000000;stroke-width:1px;stroke-linecap:butt;stroke-linejoin:miter;stroke-opacity:1"
         d="m 377.14286,251.29075 c 1.77599,-2.7321 5.80813,-4.02595 7.5,-0.35714"
         id="path4051"
         inkscape:connector-curvature="0" />
      <path
         style="fill:none;stroke:#000000;stroke-width:1px;stroke-linecap:butt;stroke-linejoin:miter;stroke-opacity:1"
         d="m 361.78571,257.71932 c 7.25184,0.41191 14.23382,-2.11077 21.53181,-1.44856 8.77526,0.0177 17.55001,0.0454 26.32534,0.02"
         id="path4053"
         inkscape:connector-curvature="0" />
      <path
         style="fill:#ff0000;stroke:#000000;stroke-width:1px;stroke-linecap:butt;stroke-linejoin:miter;stroke-opacity:1"
         d="m 342.14286,264.86218 c 1.81588,-5.54242 6.42609,-11.89807 10.52015,-4.13005 6.40241,4.76366 12.66571,4.75343 19.18901,6.01049 2.69234,0.86189 12.21314,2.27231 4.07719,3.52923 -7.21868,2.73236 -15.02492,2.68238 -22.59868,3.16176 -5.64993,-0.5551 -17.27624,1.53574 -11.63022,-7.59283 l 0.44255,-0.9786 0,0 z"
         id="path4055"
         inkscape:connector-curvature="0" />
      <path
         style="fill:#ff0000;stroke:#000000;stroke-width:1px;stroke-linecap:butt;stroke-linejoin:miter;stroke-opacity:1"
         d="m 386.78571,268.07647 c 10.42244,0.0893 21.02202,-1.24394 30.74011,-5.15903 3.67573,-2.58842 10.71602,-5.61614 7.49616,1.94564 0.40073,4.33921 1.74703,9.13979 -4.6383,7.48397 -8.55484,-0.25018 -17.49946,0.96678 -25.46097,-2.68896 -2.67777,-0.83572 -5.45991,-0.78095 -8.137,-1.58162 z"
         id="path4057"
         inkscape:connector-curvature="0" />
      <path
         style="fill:#000000;fill-opacity:1;stroke:#000000;stroke-width:0.1;stroke-miterlimit:4;stroke-opacity:1;stroke-dasharray:none;stroke-dashoffset:0"
         d="m 372.14287,241.11218 c -1.67214,7.68416 -7.93131,-5.20217 -0.80972,-2.03302 l 0.44689,0.59539 0.36283,1.43763 z"
         id="path4061"
         inkscape:connector-curvature="0" />
      <path
         style="fill:#000000;fill-opacity:1;stroke:#000000;stroke-width:0.1;stroke-miterlimit:4;stroke-opacity:1;stroke-dasharray:none;stroke-dashoffset:0"
         d="m 391.25,242.71933 c -1.67214,7.68416 -7.93131,-5.20217 -0.80972,-2.03302 l 0.44689,0.59539 0.36283,1.43763 z"
         id="path4061-7"
         inkscape:connector-curvature="0" />
    </g>
    <g
       id="g4081"
       transform="translate(149.50258,7.8286822)">
      <path
         style="fill:#b3b3b3;stroke:#000000;stroke-width:1px;stroke-linecap:butt;stroke-linejoin:miter;stroke-opacity:1"
         d="m 260.71429,297.36218 c -5.62764,-0.42653 -6.33923,8.32568 -0.0164,7.29521 6.69766,1.00485 13.25535,-1.42619 19.94902,-0.87023 7.13893,-0.32063 14.24269,1.52296 21.33503,0.12843 7.47904,-0.25149 14.9637,1.90629 22.4498,0.56985 4.6946,1.42006 11.78433,-2.96493 10.56827,-7.4804 -0.70249,-0.62471 -1.66768,-0.32362 -2.5,-0.35714"
         id="path4041"
         inkscape:connector-curvature="0" />
      <path
         style="fill:#999999;stroke:#000000;stroke-width:1px;stroke-linecap:butt;stroke-linejoin:miter;stroke-opacity:1"
         d="m 258.92857,244.86218 c 5.30031,-0.2983 10.37112,1.71094 15.67723,1.0876 13.70796,0.0444 27.45828,-0.19414 41.13983,0.13855 4.30831,2.02967 10.79873,-1.93727 13.42982,2.54971 2.38215,5.12529 1.70536,10.85407 2.96235,16.24018 -0.15485,7.18176 1.84774,14.22286 1.43363,21.41255 0.15935,3.84637 3.61067,11.10635 -2.06502,12.19362 -5.77831,0.90274 -11.52421,1.83631 -17.42829,1.38088 -7.94962,1.0564 -15.8178,-0.40611 -23.75252,-0.43329 -6.87485,-0.71088 -13.72861,-1.59947 -20.64378,-2.06978 -4.31327,-0.62645 -13.47798,2.41065 -12.13328,-4.7639 -2.32568,-9.45318 -3.40543,-19.13494 -4.00839,-28.83103 -0.28084,-5.44377 0.79371,-10.90482 3.02809,-15.86711 0.37375,-1.26333 1.0544,-2.53888 2.36033,-3.03798 z"
         id="path4029"
         inkscape:connector-curvature="0" />
      <path
         style="fill:#000000;stroke:#000000;stroke-width:1px;stroke-linecap:butt;stroke-linejoin:miter;stroke-opacity:1"
         d="m 291.78571,260.93361 c -5.8215,3.47315 -1.92483,11.40876 -6.63671,15.62153 -2.55636,3.53061 -4.64865,8.42117 1.01861,10.07365 4.9658,1.49529 12.83522,4.20701 15.79836,-1.86804 2.88438,-6.21254 -6.15796,-8.9163 -4.46597,-15.25531 0.62734,-3.27622 -3.00032,-6.85742 -4.70788,-6.42644 l -0.48629,-1.08038 -0.52012,-1.06461 0,-4e-4 z"
         id="path4031"
         inkscape:connector-curvature="0" />
      <path
         style="fill:#ff6600;stroke:#000000;stroke-width:1px;stroke-linecap:butt;stroke-linejoin:miter;stroke-opacity:1"
         d="m 286.07143,285.93361 c -5.20856,1.06568 -2.42324,9.07643 1.97959,4.1748 l 0.64458,-0.94519 0.23297,-1.08675"
         id="path4033"
         inkscape:connector-curvature="0" />
      <path
         style="fill:#ff7f2a;stroke:#000000;stroke-width:1px;stroke-linecap:butt;stroke-linejoin:miter;stroke-opacity:1"
         d="m 294.28571,287.71932 c -1.70086,6.10173 10.64803,4.81592 5.35715,-0.35714"
         id="path4035"
         inkscape:connector-curvature="0" />
      <path
         style="fill:#ffffff;stroke:#000000;stroke-width:1px;stroke-linecap:butt;stroke-linejoin:miter;stroke-opacity:1"
         d="m 287.85714,286.6479 c 0.88202,-3.89239 -0.0434,-13.99183 6.45131,-9.37756 4.21925,2.32203 3.38033,6.91427 3.90584,10.80613"
         id="path4037"
         inkscape:connector-curvature="0" />
      <path
         style="fill:#ff7f2a;stroke:#000000;stroke-width:1px;stroke-linecap:butt;stroke-linejoin:miter;stroke-opacity:1"
         d="m 291.42857,270.93361 c -3.16537,4.83731 7.45266,4.81575 4.02336,0.39479 -0.94065,0.28877 -1.69671,-0.34905 -2.59479,-0.39479"
         id="path4039"
         inkscape:connector-curvature="0" />
    </g>
    <rect
       style="fill:#b3b3b3;fill-opacity:1;stroke:#000000;stroke-width:0.1;stroke-miterlimit:4;stroke-opacity:1;stroke-dasharray:none;stroke-dashoffset:0"
       id="rect4139"
       width="145.96704"
       height="111.62186"
       x="250.77037"
       y="140.19443" />
    <rect
       style="fill:#f2f2f2;fill-opacity:1;stroke:#000000;stroke-width:0.10148825;stroke-miterlimit:4;stroke-opacity:1;stroke-dasharray:none;stroke-dashoffset:0"
       id="rect4141"
       width="85.356247"
       height="93.68959"
       x="261.12524"
       y="148.52924" />
    <rect
       style="fill:#00ffff;fill-opacity:1;stroke:#000000;stroke-width:0.1;stroke-miterlimit:4;stroke-opacity:1;stroke-dasharray:none;stroke-dashoffset:0"
       id="rect4143"
       width="80.812202"
       height="71.215752"
       x="263.64981"
       y="168.98376" />
    <text
       xml:space="preserve"
       style="font-size:9.7141304px;font-style:normal;font-weight:normal;line-height:125%;letter-spacing:0px;word-spacing:0px;fill:#ff00ff;fill-opacity:1;stroke:none;font-family:Sans"
       x="266.26416"
       y="177.33136"
       id="text4145"
       sodipodi:linespacing="125%"><tspan
         sodipodi:role="line"
         x="266.26416"
         y="177.33136"
         id="tspan4151">Why do</tspan><tspan
         sodipodi:role="line"
         x="266.26416"
         y="189.47403"
         id="tspan4158">dermatologists</tspan><tspan
         sodipodi:role="line"
         x="266.26416"
         y="201.61668"
         id="tspan4160">hate this lady?</tspan></text>
    <text
       xml:space="preserve"
       style="font-size:9.7141304px;font-style:normal;font-weight:normal;line-height:125%;letter-spacing:0px;word-spacing:0px;fill:#0000ff;fill-opacity:1;stroke:none;font-family:Sans"
       x="266.32379"
       y="212.04895"
       id="text4145-6"
       sodipodi:linespacing="125%"><tspan
         sodipodi:role="line"
         x="266.32379"
         y="212.04895"
         id="tspan4194">Something </tspan><tspan
         sodipodi:role="line"
         x="266.32379"
         y="224.19162"
         id="tspan4198">better than </tspan><tspan
         sodipodi:role="line"
         x="266.32379"
         y="236.33427"
         id="tspan4204">working</tspan></text>
    <text
       xml:space="preserve"
       style="font-size:9.56864738px;font-style:normal;font-weight:normal;line-height:125%;letter-spacing:0px;word-spacing:0px;fill:#000000;fill-opacity:1;stroke:none;font-family:Sans"
       x="264.0921"
       y="163.83633"
       id="text4206"
       sodipodi:linespacing="125%"><tspan
         sodipodi:role="line"
         id="tspan4208"
         x="264.0921"
         y="163.83633">http://viralfeed</tspan></text>
    <path
       sodipodi:type="star"
       style="fill:#ff0000;fill-opacity:1;stroke:#000000;stroke-width:0.1;stroke-miterlimit:4;stroke-opacity:1;stroke-dasharray:none;stroke-dashoffset:0"
       id="path4210"
       sodipodi:sides="8"
       sodipodi:cx="470.98361"
       sodipodi:cy="369.75159"
       sodipodi:r1="6.5853891"
       sodipodi:r2="3.2926946"
       sodipodi:arg1="-0.076771891"
       sodipodi:arg2="0.31592719"
       inkscape:flatsided="true"
       inkscape:rounded="0"
       inkscape:randomized="0"
       d="m 477.5496,369.24651 -1.56599,4.79079 -4.49492,2.28028 -4.79079,-1.56599 -2.28028,-4.49493 1.56599,-4.79079 4.49493,-2.28027 4.79079,1.56599 z"
       inkscape:transform-center-x="-0.0085552659"
       inkscape:transform-center-y="-0.046692779"
       transform="matrix(0.6374541,-0.22548597,0.22548597,0.6374541,-42.566569,31.271287)" />
    <path
       style="fill:none;stroke:#000000;stroke-width:1;stroke-linecap:butt;stroke-linejoin:miter;stroke-miterlimit:4;stroke-opacity:1;stroke-dasharray:1, 1;stroke-dashoffset:0"
       d="M 250.01276,251.81629 407.59655,304.8493"
       id="path4212"
       inkscape:connector-curvature="0" />
    <path
       style="fill:none;stroke:#000000;stroke-width:1;stroke-linecap:butt;stroke-linejoin:miter;stroke-miterlimit:4;stroke-opacity:1;stroke-dasharray:1, 1;stroke-dashoffset:0"
       d="m 395.47472,140.44697 81.31727,114.65231"
       id="path4212-6"
       inkscape:connector-curvature="0"
       sodipodi:nodetypes="cc" />
  </g>
</svg>
