<?xml version="1.0" encoding="UTF-8" standalone="no"?>
<!-- Created with Inkscape (http://www.inkscape.org/) -->
<svg xmlns:dc="http://purl.org/dc/elements/1.1/" xmlns:cc="http://creativecommons.org/ns#" xmlns:rdf="http://www.w3.org/1999/02/22-rdf-syntax-ns#" xmlns:svg="http://www.w3.org/2000/svg" xmlns="http://www.w3.org/2000/svg" xmlns:sodipodi="http://sodipodi.sourceforge.net/DTD/sodipodi-0.dtd" xmlns:inkscape="http://www.inkscape.org/namespaces/inkscape" width="118.6875" height="182.50409" id="svg2" version="1.1" inkscape:version="0.47pre4 r22446" sodipodi:docname="hattip_snowman.svg">
  <title id="title3302">Snowman with tipping hat</title>
  <defs id="defs4">
    <inkscape:perspective sodipodi:type="inkscape:persp3d" inkscape:vp_x="0 : 526.18109 : 1" inkscape:vp_y="0 : 1000 : 0" inkscape:vp_z="744.09448 : 526.18109 : 1" inkscape:persp3d-origin="372.04724 : 350.78739 : 1" id="perspective10"/>
    <inkscape:perspective id="perspective63" inkscape:persp3d-origin="61.259499 : 57.270986 : 1" inkscape:vp_z="122.519 : 85.906479 : 1" inkscape:vp_y="0 : 1000 : 0" inkscape:vp_x="0 : 85.906479 : 1" sodipodi:type="inkscape:persp3d"/>
  </defs>
  <sodipodi:namedview id="base" pagecolor="#ffffff" bordercolor="#666666" borderopacity="1.0" inkscape:pageopacity="0.0" inkscape:pageshadow="2" inkscape:zoom="1.4" inkscape:cx="86.875273" inkscape:cy="83.049345" inkscape:document-units="px" inkscape:current-layer="layer1" showgrid="false" inkscape:window-width="814" inkscape:window-height="644" inkscape:window-x="726" inkscape:window-y="27" inkscape:window-maximized="0"/>
  <metadata id="metadata7">
    <rdf:RDF>
      <cc:Work rdf:about="">
        <dc:format>image/svg+xml</dc:format>
        <dc:type rdf:resource="http://purl.org/dc/dcmitype/StillImage"/>
        <dc:title>Snowman with tipping hat</dc:title>
        <dc:date>2010-12-30</dc:date>
        <dc:creator>
          <cc:Agent>
            <dc:title>Eric Schug </dc:title>
          </cc:Agent>
        </dc:creator>
        <cc:license rdf:resource="http://creativecommons.org/licenses/publicdomain/"/>
        <dc:description/>
        <dc:contributor>
          <cc:Agent>
            <dc:title>Derived from "snowman" jean_victor_balin openclipart.org
</dc:title>
          </cc:Agent>
        </dc:contributor>
      </cc:Work>
      <cc:License rdf:about="http://creativecommons.org/licenses/publicdomain/">
        <cc:permits rdf:resource="http://creativecommons.org/ns#Reproduction"/>
        <cc:permits rdf:resource="http://creativecommons.org/ns#Distribution"/>
        <cc:permits rdf:resource="http://creativecommons.org/ns#DerivativeWorks"/>
      </cc:License>
    </rdf:RDF>
  </metadata>
  <g inkscape:label="Layer 1" inkscape:groupmode="layer" id="layer1" transform="translate(-113.02622,-215.76459)">
    <g id="g2906" transform="translate(66.356574,198.66764)">
      <g transform="matrix(-0.39552858,0.91845366,0.91845366,0.39552858,155.75373,-102.97963)" id="g2902">
        <path style="fill:#8f5902;stroke:none" d="m 196.9219,57.83357 -12.52936,12.244383 -12.42356,-0.693933 -0.1551,-5.871988 -4.19277,-5.639695 -1.61296,1.644611 4.26865,4.449665 0.18267,4.89499 -8.14442,-1.5057 -3.76766,-3.676597 -1.44396,0.49927 4.60335,4.616512 8.19581,1.533085 -2.86894,4.49053 -5.68986,-1.214996 0.93315,1.923857 5.41325,0.864719 3.93176,-5.737115 13.32991,1.109643 12.73929,-12.224056 -0.76925,-1.707185 z" id="path4857-6-7" sodipodi:nodetypes="ccccccccccccccccccccc"/>
        <path style="font-size:medium;font-style:normal;font-variant:normal;font-weight:normal;font-stretch:normal;text-indent:0;text-align:start;text-decoration:none;line-height:normal;letter-spacing:normal;word-spacing:normal;text-transform:none;direction:ltr;block-progression:tb;writing-mode:lr-tb;text-anchor:start;color:#000000;fill:#312c29;fill-opacity:1;fill-rule:nonzero;stroke:none;stroke-width:0.69999999;marker:none;visibility:visible;display:inline;overflow:visible;enable-background:accumulate;font-family:Bitstream Vera Sans;-inkscape-font-specification:Bitstream Vera Sans" d="m 167.68625,57.303916 -2.1875,2.125003 4.58583,4.591546 0.22808,4.542741 -7.74394,-1.347458 -4.11049,-3.973819 -2.08759,0.695728 5.2184,5.052219 7.72569,1.590127 -2.5,3.9375 -5.9842,-1.494048 1.21557,2.834082 5.86233,0.816266 3.82147,-5.679757 13.31474,1.034393 12.27953,-11.526007 0.56814,-0.613158 c 0.80679,-1.557095 -0.20869,-2.671909 -1.17623,-2.470709 l -12.2581,12.236929 -12.13461,-0.584227 -0.42173,-5.663141 -4.21539,-6.10416 0,-5e-5 z m -0.0937,1.062503 3.73294,5.278617 0.34393,5.973389 12.91356,0.724472 12.15106,-11.964923 c 0.67245,0.105208 0.66273,1.201096 0.27313,1.436298 l -12.11878,11.495417 -13.3801,-0.920794 -3.87947,5.742917 -5.1632,-0.752039 -0.68445,-1.55194 5.47106,1.28352 2.94051,-4.920568 -8.388,-1.742669 -4.32341,-4.232167 0.93481,-0.194312 3.83609,3.683416 8.6349,1.532656 -0.2599,-5.407706 -4.15973,-4.338584 1.125,-1.125 5e-5,0 z" id="path4857-4" sodipodi:nodetypes="ccccccccccccccccccccccccccccccccccccccccccccc"/>
      </g>
    </g>
    <path style="fill:#ffffff;fill-opacity:1;fill-rule:nonzero;stroke:none" d="m 174.96372,265.38193 c -8.6544,0.0694 -12.58835,2.25596 -14.5625,5.46875 -1.97416,3.21279 -2,7.81554 -2,12.78125 0,4.7389 1.77612,8.75347 5.0625,11.75 a 0.99476437,0.99476437 0 0 1 -0.125,1.59375 c -6.8918,4.5347 -8.59375,12.44054 -8.59375,21.71875 0,4.65403 1.26834,9.00902 3.5,12.78125 a 0.99476437,0.99476437 0 0 1 -0.34375,1.34375 c -10.65407,6.27096 -17.6515,17.07518 -17.6875,29.34375 9.9e-4,0.0109 -0.001,0.0204 0,0.0312 -4e-5,0.0211 0,0.0414 0,0.0625 1.03507,11.21599 3.40429,19.78594 9.5,25.625 6.10925,5.85204 16.13951,9.14182 32.9375,9.375 0.0115,1.6e-4 0.0197,-1.6e-4 0.0312,0 18.29216,-0.69726 28.51193,-1.73268 34.90625,-5.9375 6.36661,-4.1866 9.36829,-11.71629 13.09375,-25.96875 -1.05733,-12.40179 -10.39189,-25.82673 -23.0937,-32.9687 a 0.99476437,0.99476437 0 0 1 -0.4375,-1.25 c 1.29073,-3.31663 1.75482,-7.35967 0.9375,-12.28125 a 0.99476437,0.99476437 0 0 1 -0.0312,-0.15625 c 0,-9.01898 -4.76961,-16.85909 -12.03125,-21.46875 a 0.99476437,0.99476437 0 0 1 -0.18755,-1.53125 c 2.44242,-2.61558 3.74279,-6.36875 3.25,-11.90625 -1.71473,-6.25349 -4.03379,-10.65037 -7.25,-13.5625 -3.23466,-2.92883 -7.42254,-4.43535 -13.15625,-4.75 -1.32032,-0.0725 -2.56425,-0.103 -3.71875,-0.0937 z" id="path3928"/>
    <path style="fill:#dcdcdc;fill-opacity:1;fill-rule:nonzero;stroke:none" d="m 170.58003,264.7026 c -12.66065,1.74086 -12.59375,10.04987 -12.59375,18.9375 0,10.58702 8.35579,17.36243 22.5625,18.15625 1.12459,0.0628 2.32248,-0.34835 3.4007,-0.43371 -10.82544,-1.88351 -19.63146,-7.5048 -19.63146,-17.7085 0,-6.73505 2.28976,-14.91809 6.26201,-18.95154 z" id="path3807-4-8-4" sodipodi:nodetypes="csscsc"/>
    <path style="fill:#312c29;fill-opacity:1;fill-rule:nonzero;stroke:none" d="m 205.64346,385.34343 c 0,1.48574 -2.4129,2.60196 -3.6163,2.69016 -1.99188,0.146 -3.61629,-1.20442 -3.61629,-2.69016 0,-1.48574 1.17806,-3.925 3.61629,-2.69017 1.78176,0.90236 3.6163,1.20443 3.6163,2.69017 z" id="path4010" sodipodi:nodetypes="csssc"/>
    <path style="fill:#312c29;fill-opacity:1;fill-rule:nonzero;stroke:none" d="m 206.79008,369.40996 c 0,1.48574 -1.88074,2.57611 -3.6163,2.69016 -2.7803,0.1827 -3.61629,-1.20442 -3.61629,-2.69016 0,-1.48574 0.82525,-2.77837 3.61629,-3.7486 1.8865,-0.65578 2.82248,2.17466 3.6163,3.7486 z" id="path4010-2" sodipodi:nodetypes="csssc"/>
    <path style="fill:#312c29;fill-opacity:1;fill-rule:nonzero;stroke:none" d="m 199.82497,349.79317 c -1.18776,0.96854 -2.9676,0.94438 -4.10166,-0.0597 -0.85995,-0.76138 -1.22827,-1.56854 0.0397,-3.46859 0.85709,-1.28426 2.48979,-0.59331 4.06617,-0.0816 1.18713,0.62891 1.48407,1.66951 -0.004,3.60989 l -2.1e-4,0 z" id="path4010-2-7" sodipodi:nodetypes="cssccc"/>
    <path style="fill:#312c29;fill-opacity:1;fill-rule:nonzero;stroke:none" d="m 196.02478,330.59377 c -1.18776,0.96854 -2.9676,0.94438 -4.10166,-0.0597 -0.85995,-0.76138 -1.70281,-3.0881 0.39251,-3.9978 1.73911,-0.75505 1.69597,0.81791 3.00774,0.88861 1.31693,-0.10071 2.08637,1.66707 0.70142,3.16889 l -1e-5,0 z" id="path4010-2-7-6" sodipodi:nodetypes="cssccc"/>
    <path style="fill:#312c29;fill-opacity:1;fill-rule:nonzero;stroke:none" d="m 187.54377,313.2785 c -1.12456,-1.6434 -0.47674,-4.13088 1.80375,-4.26241 0.85708,-0.0494 1.78417,0.90611 2.83133,1.77064 0.87592,0.78131 0.93974,2.28448 -1.06262,3.25709 -1.36721,0.55959 -2.84116,0.25911 -3.57246,-0.76532 z" id="path4010-2-7-6-1" sodipodi:nodetypes="csccc"/>
    <path style="fill:#312c29;fill-opacity:1;fill-rule:nonzero;stroke:none" d="m 174.45466,296.55807 c -0.56844,-0.79063 -0.24098,-1.98735 0.91175,-2.05063 0.43323,-0.0238 0.90186,0.43593 1.43118,0.85185 0.44274,0.37589 0.475,1.09906 -0.53713,1.56698 -0.6911,0.26921 -1.23123,0.0346 -1.8058,-0.3682 z" id="path4010-2-7-6-1-4-22" sodipodi:nodetypes="csccc"/>
    <path style="fill:#312c29;fill-opacity:1;fill-rule:nonzero;stroke:none" d="m 178.3224,297.8811 c -0.54102,-0.79063 -0.22936,-1.98735 0.86778,-2.05062 0.41234,-0.0238 0.85836,0.43592 1.36214,0.85184 0.42141,0.37589 0.45211,1.09906 -0.51122,1.56698 -0.65776,0.26921 -1.17184,0.0346 -1.7187,-0.3682 z" id="path4010-2-7-6-1-4-6" sodipodi:nodetypes="csccc"/>
    <path style="fill:#312c29;fill-opacity:1;fill-rule:nonzero;stroke:none" d="m 183.10701,298.50934 c -0.79729,-0.53116 -0.95544,-1.75764 0.0386,-2.22635 0.37358,-0.17616 0.95908,0.0836 1.58179,0.28107 0.53135,0.19116 0.83009,0.85046 0.11143,1.64448 -0.50949,0.49553 -1.07398,0.47007 -1.73177,0.3008 z" id="path4010-2-7-6-1-4-5" sodipodi:nodetypes="csccc"/>
    <path style="fill:#312c29;fill-opacity:1;fill-rule:nonzero;stroke:none" d="m 187.72749,298.21178 c -0.68295,-0.39977 -0.8722,-1.40359 -0.075,-1.83779 0.29962,-0.16317 0.7949,0.0229 1.31789,0.15592 0.44734,0.13216 0.72532,0.66151 0.17076,1.35077 -0.39638,0.43307 -0.86311,0.43914 -1.41366,0.3311 z" id="path4010-2-7-6-1-4-61" sodipodi:nodetypes="csccc"/>
    <path style="fill:#312c29;fill-opacity:1;fill-rule:nonzero;stroke:none" d="m 191.93892,297.56685 c -0.78999,-0.0465 -1.41397,-0.8553 -0.90042,-1.60386 0.19301,-0.28132 0.71881,-0.34013 1.24525,-0.45881 0.45861,-0.0851 0.94645,0.26057 0.76486,1.12637 -0.15683,0.56575 -0.57003,0.78286 -1.10969,0.9363 z" id="path4010-2-7-6-1-4-27" sodipodi:nodetypes="csccc"/>
    <path style="fill:#312c29;fill-opacity:1;fill-rule:nonzero;stroke:none" d="m 194.90242,296.048 c -0.68518,0.0923 -1.35552,-0.49684 -1.0404,-1.22463 0.11843,-0.27351 0.55946,-0.4119 0.991,-0.60173 0.37901,-0.14972 0.85515,0.0651 0.84429,0.83787 -0.0398,0.51135 -0.35781,0.76665 -0.79489,0.98849 z" id="path4010-2-7-6-1-4-54" sodipodi:nodetypes="csccc"/>
    <path style="fill:#312c29;fill-opacity:1;fill-rule:nonzero;stroke:none" d="m 173.75041,283.66912 c -1.29397,-1.89098 -0.92277,-4.50372 1.70128,-4.65507 0.9862,-0.0569 2.24005,0.10709 3.44496,1.10186 1.00788,0.89901 1.26843,3.31469 -1.03559,4.43382 -1.57318,0.64389 -3.11456,0.33233 -4.11065,-0.88061 z" id="path4010-2-7-6-1-3" sodipodi:nodetypes="csccc"/>
    <path style="fill:#312c29;fill-opacity:1;fill-rule:nonzero;stroke:none" d="m 195.89815,282.40929 c 1.34285,-1.33155 0.47674,-4.13088 -1.80375,-4.2624 -0.85708,-0.0494 -1.65944,0.34479 -2.7066,1.20932 -0.87592,0.78131 -1.06447,2.84579 0.93789,3.8184 1.36721,0.55959 2.43577,0.072 3.57246,-0.76532 z" id="path4010-2-7-6-1-2" sodipodi:nodetypes="csccc"/>
    <path style="fill:#dcdcdc;fill-opacity:1;fill-rule:nonzero;stroke:none" d="m 162.93247,296.51867 c -6.90831,4.7191 -8.59375,12.94756 -8.59375,22.1875 0,4.76934 1.28125,9.2331 3.5,13.09375 -10.90755,6.44307 -18.125,17.56244 -18.125,30.21875 2.0774,22.71078 9.58234,35.53832 43.46875,36 0.7348,-0.028 1.38425,-0.0647 2.09375,-0.0937 -25.30238,-3.02461 -31.46119,-16.44823 -33.3125,-38.4375 0,-9.05201 3.16167,-17.36056 8.40625,-24 4.84625,5.8619 12.16894,9.59375 20.375,9.59375 3.71309,0 7.45233,-0.46214 10.90625,-1.46875 -17.55007,-1.5528 -31.28125,-14.89029 -31.28125,-31.125 0,-5.79947 0.63347,-11.27977 2.5625,-15.96875 z" id="path3807-8"/>
    <path style="fill:#a0a0a0;fill-opacity:1;fill-rule:nonzero;stroke:none" d="m 206.68924,331.96279 c -4.70648,8.83676 -15.42505,12.40625 -25.99275,12.40625 -7.74268,0 -14.74996,-3.15342 -19.82397,-8.28125 4.86052,5.87575 12.16223,9.625 20.33305,9.625 10.75656,0 21.67659,-3.91878 25.48367,-13.75 z" id="path3807-4-2-1"/>
    <path style="fill:#a0a0a0;fill-opacity:1;fill-rule:nonzero;stroke:none" d="m 194.88011,296.9205 c -4.58569,3.54359 -11.3974,4.36972 -18.80485,3.58958 -3.30184,-0.34774 -6.27266,-1.05142 -8.86953,-2.00816 2.76244,1.73334 6.36093,2.9429 10.72649,3.40267 7.12016,0.74988 13.56486,-0.37302 16.94789,-4.98409 z" id="path3807-4-8-4-1"/>
    <path style="fill:#312c29;fill-opacity:1;fill-rule:nonzero;stroke:none" d="m 174.96372,264.39367 c -17.65373,0.14153 -17.5625,9.32467 -17.5625,19.25 0,4.9941 1.92203,9.32307 5.40625,12.5 -7.27419,4.7863 -9.0625,13.15819 -9.0625,22.5625 0,4.83759 1.33909,9.36449 3.65625,13.28125 -10.94865,6.44435 -18.1875,17.59501 -18.1875,30.28125 2.0774,22.71078 9.58233,35.53832 43.46875,36 36.67128,-1.39614 41.50626,-3.97416 49.03125,-32.84375 -1.02651,-12.87714 -10.58968,-26.57675 -23.625,-33.90625 1.36258,-3.50125 1.81012,-7.74611 0.96875,-12.8125 0,-9.37089 -4.97293,-17.53435 -12.5,-22.3125 2.66052,-2.84915 4.05936,-6.97397 3.53125,-12.75 -3.49262,-12.83228 -9.57652,-18.5105 -21.34375,-19.15625 -1.3399,-0.0735 -2.60434,-0.10319 -3.78125,-0.0937 z m 0,1 c 1.1545,-0.009 2.39843,0.0213 3.71875,0.0937 5.73371,0.31465 9.92159,1.82116 13.15625,4.75 3.21621,2.91212 5.53527,7.309 7.25,13.5625 0.49279,5.5375 -0.80758,9.29067 -3.25,11.90625 a 0.99476437,0.99476437 0 0 0 0.1875,1.53125 c 7.26164,4.60966 12.03125,12.44977 12.03125,21.46875 a 0.99476437,0.99476437 0 0 0 0.0312,0.15625 c 0.81732,4.92158 0.35323,8.96462 -0.9375,12.28125 a 0.99476437,0.99476437 0 0 0 0.4375,1.25 c 12.70181,7.14197 22.03637,20.56691 23.09375,32.96875 -3.72546,14.25246 -6.72714,21.78215 -13.09375,25.96875 -6.39432,4.20482 -16.61409,5.24024 -34.90625,5.9375 -0.0115,-1.6e-4 -0.0198,1.6e-4 -0.0312,0 -16.79799,-0.23318 -26.82825,-3.52296 -32.9375,-9.375 -6.09571,-5.83906 -8.46493,-14.40901 -9.5,-25.625 0,-0.0211 -4e-5,-0.0414 0,-0.0625 -0.001,-0.0109 9.9e-4,-0.0204 0,-0.0312 0.036,-12.26857 7.03343,-23.07279 17.6875,-29.34375 a 0.99476437,0.99476437 0 0 0 0.34375,-1.34375 c -2.23166,-3.77223 -3.5,-8.12722 -3.5,-12.78125 0,-9.27821 1.70195,-17.18405 8.59375,-21.71875 a 0.99476437,0.99476437 0 0 0 0.125,-1.59375 c -3.28638,-2.99653 -5.0625,-7.0111 -5.0625,-11.75 0,-4.96571 0.0258,-9.56846 2,-12.78125 1.97415,-3.21279 5.9081,-5.39937 14.5625,-5.46875 z" id="path3807"/>
    <path style="fill:#8d7c6a;fill-opacity:1;fill-rule:nonzero;stroke:none" d="m 202.54623,383.95028 c 0,0.47482 -0.89213,0.83154 -1.33707,0.85972 -0.73647,0.0467 -1.33707,-0.3849 -1.33707,-0.85972 0,-0.47482 0.43557,-1.25436 1.33707,-0.85974 0.65878,0.28838 1.33707,0.38492 1.33707,0.85974 z" id="path4010-7" sodipodi:nodetypes="csssc"/>
    <path style="fill:#8d7c6a;fill-opacity:1;fill-rule:nonzero;stroke:none" d="m 204.77479,367.55588 c 0,0.58434 -0.73967,1.01318 -1.42227,1.05803 -1.09347,0.0718 -1.42226,-0.47369 -1.42226,-1.05803 0,-0.58433 0.32457,-1.09271 1.42226,-1.4743 0.74195,-0.25792 1.11008,0.85528 1.42227,1.4743 z" id="path4010-2-2" sodipodi:nodetypes="csssc"/>
    <path style="fill:#8d7c6a;fill-opacity:1;fill-rule:nonzero;stroke:none" d="m 197.65295,347.77345 c -0.4501,0.36703 -1.12458,0.35788 -1.55434,-0.0226 -0.32589,-0.28852 -0.46547,-0.5944 0.0151,-1.31444 0.3248,-0.48668 0.94352,-0.22483 1.54089,-0.0309 0.44988,0.23834 0.56241,0.63267 -10e-4,1.36799 l -8e-5,0 z" id="path4010-2-7-7" sodipodi:nodetypes="cssccc"/>
    <path style="fill:#8d7c6a;fill-opacity:1;fill-rule:nonzero;stroke:none" d="m 193.79443,328.54773 c -0.44562,0.36338 -1.11337,0.35431 -1.53884,-0.0224 -0.32264,-0.28566 -0.63886,-1.15858 0.14726,-1.49988 0.65247,-0.28328 0.63628,0.30686 1.12844,0.33338 0.49408,-0.0377 0.78275,0.62544 0.26314,1.1889 l 0,0 z" id="path4010-2-7-6-7" sodipodi:nodetypes="cssccc"/>
    <path style="fill:#8d7c6a;fill-opacity:1;fill-rule:nonzero;stroke:none" d="m 188.47095,311.33586 c -0.4682,-0.61518 -0.26574,-1.59232 0.61589,-1.68798 0.33135,-0.036 0.70951,0.31638 1.13245,0.63108 0.35492,0.28578 0.40911,0.86735 -0.34822,1.28367 -0.51915,0.24374 -1.09651,0.1561 -1.40012,-0.22677 z" id="path4010-2-7-6-1-9" sodipodi:nodetypes="csccc"/>
    <path style="fill:#8d7c6a;fill-opacity:1;fill-rule:nonzero;stroke:none" d="m 174.41424,281.2771 c -0.48326,-0.70622 -0.34463,-1.68199 0.63536,-1.73851 0.36832,-0.0212 0.83659,0.04 1.28658,0.41151 0.37642,0.33575 0.47372,1.23792 -0.38675,1.65588 -0.58753,0.24047 -1.16318,0.12411 -1.53519,-0.32888 z" id="path4010-2-7-6-1-3-1" sodipodi:nodetypes="csccc"/>
    <g id="g4845" transform="translate(74.213717,209.38193)">
      <path sodipodi:nodetypes="ccccccc" id="path4555-9" d="m 114.05679,75.709 c 1.50753,-0.756292 7.29321,2.742383 13.8937,3.960234 4.80754,0.835976 14.23809,1.412237 14.11386,3.378392 -0.26275,1.51274 -1.02017,1.841015 -2.1501,1.876829 -5.90494,-0.997693 -11.50695,-1.682922 -17.80823,-2.19398 -2.62152,-0.02357 -7.50712,0.618226 -9.21554,-0.148644 -2.3926,-2.350392 -1.25162,-5.122714 1.16631,-6.872831 z" style="fill:#f57800;fill-opacity:1;stroke:none"/>
      <path id="path4555-9-4" d="m 112.84256,77.287193 c -1.18965,1.596081 -1.38291,3.55714 0.36741,5.281668 1.6738,0.753554 6.46357,0.09967 9.03199,0.12283 6.17364,0.502184 11.63572,1.169147 17.42104,2.149516 1.10704,-0.03519 1.85514,-0.35597 2.11256,-1.842443 0.004,-0.06037 0.0141,-0.09578 0,-0.153536 -0.36887,0.716982 -0.944,0.923324 -1.71455,0.951928 -5.68491,-1.124978 -11.07898,-1.911039 -17.14548,-2.487297 -2.52384,-0.02658 -7.23413,0.71117 -8.87891,-0.153537 -1.08055,-1.243244 -1.38646,-2.584593 -1.19406,-3.869129 z" style="fill:#ce5d01;fill-opacity:1;stroke:none"/>
      <path id="path4555" d="m 113.875,75.34375 -0.0312,0.03125 -0.0312,0 c -1.26602,0.916357 -2.2127,2.105854 -2.53125,3.4375 -0.31855,1.331646 0.0687,2.809931 1.34375,4.0625 l 0.0312,0.03125 0.0625,0.03125 c 1.0222,0.458843 2.66143,0.468364 4.4375,0.40625 1.76485,-0.06172 3.63086,-0.228088 4.90625,-0.21875 0.0109,8.83e-4 0.0204,-8.84e-4 0.0312,0 6.27829,0.50999 11.86658,1.193442 17.75,2.1875 l 0.0312,0 0.0625,0 c 0.60082,-0.01904 1.16253,-0.118007 1.625,-0.46875 0.46247,-0.350743 0.76462,-0.903338 0.90625,-1.71875 l 0,-0.03125 0,-0.03125 c 0.0256,-0.405312 -0.21844,-0.748201 -0.53125,-1 -0.31281,-0.251799 -0.72461,-0.444727 -1.21875,-0.625 -0.98828,-0.360547 -2.29909,-0.657297 -3.78125,-0.90625 -2.96433,-0.497905 -6.53069,-0.836917 -8.90625,-1.25 -3.25354,-0.600308 -6.32084,-1.786202 -8.78125,-2.71875 -1.2302,-0.466274 -2.33236,-0.876226 -3.21875,-1.125 -0.88639,-0.248774 -1.57722,-0.384235 -2.15625,-0.09375 z m 0.375,0.71875 c 0.17474,-0.08766 0.73382,-0.07633 1.5625,0.15625 0.82868,0.232578 1.89528,0.62766 3.125,1.09375 2.45944,0.93218 5.59055,2.132457 8.9375,2.75 2.43198,0.422893 5.98447,0.790492 8.90625,1.28125 1.46089,0.245379 2.761,0.517143 3.65625,0.84375 0.44762,0.163304 0.80208,0.340685 1,0.5 0.17696,0.142447 0.18387,0.23352 0.1875,0.3125 -0.12274,0.655919 -0.30604,1.024251 -0.5625,1.21875 -0.25109,0.190431 -0.60569,0.289826 -1.09375,0.3125 -0.0204,-0.0034 -0.0421,0.0034 -0.0625,0 -5.89378,-0.994005 -11.49207,-1.677424 -17.78125,-2.1875 -1.34563,-0.0121 -3.21954,0.126326 -4.96875,0.1875 -1.72266,0.06025 -3.32677,-0.0162 -4.03125,-0.3125 -1.06731,-1.078463 -1.31615,-2.158407 -1.0625,-3.21875 0.25543,-1.06778 1.05544,-2.107859 2.1875,-2.9375 z" style="font-size:medium;font-style:normal;font-variant:normal;font-weight:normal;font-stretch:normal;text-indent:0;text-align:start;text-decoration:none;line-height:normal;letter-spacing:normal;word-spacing:normal;text-transform:none;direction:ltr;block-progression:tb;writing-mode:lr-tb;text-anchor:start;color:#000000;fill:#312c29;fill-opacity:1;fill-rule:nonzero;stroke:none;stroke-width:0.80000001;marker:none;visibility:visible;display:inline;overflow:visible;enable-background:accumulate;font-family:Bitstream Vera Sans;-inkscape-font-specification:Bitstream Vera Sans"/>
      <path id="path4593" d="m 123.65246,78.855489 c -1.2831,0 -2.37419,0.512184 -2.875,1.25 0.8399,-0.557051 2.25774,-0.9375 3.84375,-0.9375 0.2679,0 0.52573,0.04251 0.78125,0.0625 -0.5017,-0.223585 -1.1034,-0.375 -1.75,-0.375 z" style="fill:#312c29;fill-opacity:1;fill-rule:nonzero;stroke:none"/>
      <path id="path4593-6" d="m 125.08205,79.086944 c -1.28309,0 -2.37418,0.556906 -2.875,1.359145 0.83991,-0.60569 2.25774,-1.019359 3.84375,-1.019359 0.2679,0 0.52573,0.04622 0.78125,0.06796 -0.5017,-0.243108 -1.1034,-0.407744 -1.75,-0.407744 z" style="fill:#312c29;fill-opacity:1;fill-rule:nonzero;stroke:none"/>
      <path id="path4593-6-5" d="m 112.76207,79.947466 c 0.005,1.283087 0.52046,2.372381 1.26003,2.870631 -0.55999,-0.837967 -0.94538,-2.254463 -0.9509,-3.840464 -8.9e-4,-0.26789 0.0406,-0.525883 0.0598,-0.781455 -0.22186,0.502474 -0.37116,1.104698 -0.36887,1.751301 z" style="fill:#312c29;fill-opacity:1;fill-rule:nonzero;stroke:none"/>
      <path id="path4593-6-5-0" d="m 113.61515,80.415953 c 0.0735,1.280987 0.64734,2.340945 1.41264,2.798685 -0.60426,-0.806626 -1.06529,-2.200337 -1.15613,-3.783744 -0.0153,-0.267454 0.0123,-0.527307 0.0177,-0.783539 -0.1945,0.513682 -0.31119,1.123066 -0.27412,1.768609 z" style="fill:#312c29;fill-opacity:1;fill-rule:nonzero;stroke:none"/>
      <path id="path4593-6-5-8" d="m 114.49888,80.838581 c 0.0709,1.181416 0.6421,2.168506 1.40578,2.604384 -0.6021,-0.754285 -1.05994,-2.046736 -1.14756,-3.507063 -0.0148,-0.246665 0.0133,-0.48553 0.0192,-0.721472 -0.19534,0.469595 -0.31312,1.028797 -0.27737,1.624162 z" style="fill:#312c29;fill-opacity:1;fill-rule:nonzero;stroke:none"/>
    </g>
    <path style="fill:#8f5902;stroke:none" d="m 157.08632,311.9717 -12.72315,-4.1163 -6.64759,2.48846 -6.32504,-0.83663 -0.22807,-5.48841 -6.43464,-8.35737 -1.65185,1.62786 6.44351,7.32293 0.18267,4.89499 -8.14442,-1.5057 -6.80366,-7.01293 -1.21711,1.1503 7.25095,7.4628 8.35736,1.3721 -2.86894,4.49053 -7.2196,2.23012 1.21083,2.13566 6.66531,-2.7922 4.12625,-5.65336 6.65645,0.74215 6.70552,-2.06259 12.79254,4.99833 -0.12732,-3.09074 z" id="path4857-6" sodipodi:nodetypes="ccccccccccccccccccccccc"/>
    <path style="font-size:medium;font-style:normal;font-variant:normal;font-weight:normal;font-stretch:normal;text-indent:0;text-align:start;text-decoration:none;line-height:normal;letter-spacing:normal;word-spacing:normal;text-transform:none;direction:ltr;block-progression:tb;writing-mode:lr-tb;text-anchor:start;color:#000000;fill:#312c29;fill-opacity:1;fill-rule:nonzero;stroke:none;stroke-width:0.69999999;marker:none;visibility:visible;display:inline;overflow:visible;enable-background:accumulate;font-family:Bitstream Vera Sans;-inkscape-font-specification:Bitstream Vera Sans" d="m 124.77622,295.13193 -0.28125,0.28125 -1.65625,1.625 -0.25,0.21875 0.21875,0.25 6.375,7.28125 0.15625,4.28125 -7.59375,-1.375 -6.75,-6.9375 -0.21875,-0.25 -0.25,0.21875 -1.21875,1.15625 -0.28125,0.25 0.25,0.25 7.25,7.46875 0.0937,0.0625 0.125,0.0312 7.8125,1.28125 -2.5,3.9375 -7.09375,2.1875 -0.4375,0.125 0.21875,0.40625 1.21875,2.125 0.15625,0.28125 0.28125,-0.125 6.65625,-2.8125 0.0937,-0.0312 0.0625,-0.0625 4.03125,-5.5 6.4375,0.71875 0.0625,0 0.0625,0 6.65625,-2.03125 12.625,4.9375 0.5,0.1875 c 0.52144,-0.48271 0.81378,-3.0232 -0.15625,-3.84375 -0.068,-0.0575 -0.25,-0.0937 -0.25,-0.0937 l -12.71875,-4.125 -0.0937,-0.0312 -0.125,0.0625 -6.59375,2.4375 -5.90625,-0.7813 -0.21875,-5.1875 -0.0312,-0.125 -0.0625,-0.0625 -6.4375,-8.375 -0.21875,-0.3125 z m -0.0937,1.0625 6.125,7.96875 0.21875,5.34375 0.0312,0.3125 0.28125,0.0312 6.34375,0.84375 0.0625,0 0.0937,-0.0312 6.53125,-2.4375 12.375,4.03125 c 0.3661,0.38828 0.49522,1.59007 0.0937,2.28125 l -12.28125,-4.8125 -0.125,-0.0312 -0.125,0.0312 -6.65625,2.0625 -0.0312,0 -6.53125,-0.75 -0.1875,-0.0312 -0.125,0.15625 -4.09375,5.625 -6.28125,2.5937 -0.8125,-1.46875 6.78125,-2.125 0.125,-0.0312 0.0625,-0.0937 2.875,-4.5 0.28125,-0.4376 -0.5,-0.0937 -8.25,-1.34375 -6.9375,-7.15625 0.71875,-0.65625 6.5625,6.78125 0.0625,0.0625 0.125,0.0312 8.15625,1.5 0.40625,0.0937 0,-0.4375 -0.1875,-4.90625 0,-0.125 -0.0937,-0.0937 -6.21875,-7.0625 1.125,-1.125 z" id="path4857" sodipodi:nodetypes="cccccccccccccccccccccccccccccccccccsccccccccccccccccccccccccccccccccccccccccccccccccccccc"/>
    <path style="fill:#dcdcdc;fill-opacity:1;fill-rule:nonzero;stroke:none" d="m 180.44976,252.44243 28.09517,15.62161 c 0,0 -0.17928,3.27289 -1.06812,2.99768 -13.60069,-4.21121 -16.71827,-7.38758 -28.08334,-14.70453 -1.47315,-0.95023 1.05629,-3.91476 1.05629,-3.91476 z" id="rect4107" sodipodi:nodetypes="ccssc"/>
    <path sodipodi:type="arc" style="fill:#c17d11;fill-opacity:1;fill-rule:nonzero;stroke:none" id="path2911-4" sodipodi:cx="266.82455" sodipodi:cy="48.852654" sodipodi:rx="37.672874" sodipodi:ry="2.0962648" d="m 304.49743,48.852654 a 37.672874,2.0962648 0 1 1 -75.34575,0 37.672874,2.0962648 0 1 1 75.34575,0 z" transform="matrix(0.81950967,0.47985817,-0.8108108,1.0417482,15.929989,81.232392)"/>
    <path style="fill:#a56b0f;fill-opacity:1;fill-rule:nonzero;stroke:none" d="m 223.27188,275.32445 c -1.16182,1.68326 -15.86407,-6.80821 -29.85074,-14.71552 -13.15633,-7.4379 -24.26653,-14.53256 -28.83682,-18.26696 2.66264,2.91692 13.91906,11.16455 28.27771,19.69032 16.97087,10.07685 31.75184,17.0696 32.65628,15.90332 0.14525,-0.18735 -1.71433,-2.04265 -2.24643,-2.61116 z" id="path2911-4-2" sodipodi:nodetypes="cscssc"/>
    <path style="fill:#a56b0f;fill-opacity:1;fill-rule:nonzero;stroke:none" d="m 189.51918,253.82827 c -13.95435,-7.8523 -24.96599,-13.01302 -25.77625,-11.97197 -0.75052,0.96427 7.52538,6.9855 19.55733,14.45194 2.89965,0.063 5.0807,-0.6723 6.09984,-2.29383 0.0401,-0.0638 0.083,-0.12027 0.11911,-0.18611 z" id="path2911-4-7"/>
    <path style="font-size:medium;font-style:normal;font-variant:normal;font-weight:normal;font-stretch:normal;text-indent:0;text-align:start;text-decoration:none;line-height:normal;letter-spacing:normal;word-spacing:normal;text-transform:none;direction:ltr;block-progression:tb;writing-mode:lr-tb;text-anchor:start;color:#000000;fill:#312c29;fill-opacity:1;fill-rule:nonzero;stroke:none;stroke-width:0.89701545;marker:none;visibility:visible;display:inline;overflow:visible;enable-background:accumulate;font-family:Bitstream Vera Sans;-inkscape-font-specification:Bitstream Vera Sans" d="m 197.03475,257.51052 c -8.53095,-4.99525 -16.44635,-9.25859 -22.35181,-12.14014 -2.95274,-1.44077 -5.37998,-2.53951 -7.16501,-3.2002 -0.89251,-0.33034 -1.61262,-0.55049 -2.17329,-0.65647 -0.28034,-0.053 -0.53342,-0.0862 -0.76612,-0.0695 -0.11637,0.008 -0.21547,0.0205 -0.3569,0.0754 -0.1414,0.0549 -0.31773,0.16874 -0.45743,0.34824 -0.1397,0.17952 -0.19554,0.36388 -0.20135,0.49819 -0.006,0.13428 -0.007,0.25112 0.0275,0.34784 0.0691,0.19346 0.19923,0.38463 0.3607,0.59035 0.32294,0.41141 0.82758,0.9084 1.51451,1.50288 1.37408,1.18872 3.45623,2.73081 6.10081,4.56751 5.28917,3.67338 12.80735,8.44707 21.3383,13.44231 8.53094,4.99524 16.47196,9.27357 22.37742,12.15512 2.95273,1.44077 5.37998,2.53951 7.165,3.2002 0.89251,0.33035 1.61262,0.5505 2.17329,0.65647 0.28033,0.053 0.53342,0.0862 0.76611,0.0695 0.11637,-0.008 0.24081,-0.053 0.38225,-0.10792 0.1414,-0.0549 0.31772,-0.16873 0.45744,-0.34823 0.13969,-0.17951 0.19553,-0.36387 0.20134,-0.49818 0.006,-0.13429 -0.0183,-0.21858 -0.0529,-0.3153 -0.0691,-0.19345 -0.19923,-0.38463 -0.36071,-0.59034 -0.32295,-0.41141 -0.82758,-0.90841 -1.5145,-1.50289 -1.37408,-1.18872 -3.45623,-2.7308 -6.10082,-4.5675 -5.28916,-3.67339 -12.83295,-8.46207 -21.3639,-13.4573 z m -0.73483,0.94405 c 8.5199,4.98877 16.06843,9.73497 21.33803,13.39476 2.6348,1.82991 4.7056,3.37439 6.04959,4.53752 0.64202,0.55559 1.10225,1.03049 1.38618,1.38036 -0.48047,-0.0973 -1.15802,-0.28952 -1.99428,-0.59905 -1.74622,-0.64633 -4.17197,-1.73477 -7.11379,-3.17022 -5.88362,-2.87089 -13.80631,-7.13636 -22.3262,-12.12513 -8.51989,-4.98876 -16.01748,-9.75252 -21.28707,-13.41232 -2.63481,-1.8299 -4.73122,-3.38939 -6.07521,-4.5525 -0.64326,-0.55666 -1.07688,-1.01524 -1.36057,-1.36537 0.48021,0.0977 1.1351,0.27553 1.96868,0.58405 1.74621,0.64634 4.19757,1.74977 7.13939,3.18521 5.88362,2.8709 13.75536,7.15393 22.27525,12.14269 z" id="path2911"/>
    <path style="fill:#c17d11;fill-opacity:1;stroke:none" d="m 210.13941,266.33749 c 2.4471,-4.38867 4.67524,-8.83805 7.38179,-13.14333 1.05259,-1.66128 2.10504,-3.47096 1.03001,-4.93018 -1.06867,-1.33384 1.81939,-0.85377 0.52081,-3.01398 -0.56207,-2.1284 2.87173,-1.2659 3.00175,-3.24036 1.92442,-4.50743 2.81931,-9.37445 3.54033,-14.19784 -5.7415,-1.23481 -11.51368,-2.36579 -17.23599,-3.66553 -4.23498,-1.62989 -8.46995,-3.25978 -12.70492,-4.88968 -1.84025,3.47514 -3.7275,7.25617 -3.51085,11.29469 -0.18301,1.70295 2.27061,2.3896 -0.23477,3.97586 -1.26462,0.80069 1.71932,2.38052 -0.21425,2.67455 -2.0323,0.30904 -1.76647,3.12453 -2.77424,4.33307 -1.26774,1.73897 -2.77051,3.01828 -4.57094,4.10416 -1.94138,1.01701 -3.44024,1.70375 -5.38162,2.72077 5.53357,3.79175 11.03745,7.63612 16.58956,11.39501 4.85445,2.19426 9.70889,4.38853 14.56333,6.58279 z" id="path2913-0" sodipodi:nodetypes="cccccccccssccccc"/>
    <path style="fill:#af710f;fill-opacity:1;stroke:none" d="m 205.76304,224.27253 -10.26244,-4.99618 c -1.84025,3.47514 -3.71771,7.25733 -3.50107,11.29584 -0.18299,1.70294 2.26889,2.37557 -0.23649,3.96183 -1.26462,0.80068 1.71364,2.40352 -0.21993,2.69755 -2.0323,0.30904 -1.77175,3.1201 -2.77952,4.32865 -1.26774,1.73896 -2.76825,3.02158 -4.56868,4.10747 -1.94139,1.01701 -3.44085,1.68865 -5.38224,2.70566 3.29452,2.25747 6.58812,4.50974 9.87803,6.77539 2.61463,-1.93163 5.17636,-4.23841 7.52436,-6.96463 7.12362,-8.27113 10.46649,-16.7985 9.54798,-23.91158 z" id="path2913-0-5" sodipodi:nodetypes="cccssccccsc"/>
    <path style="fill:#8f5902;fill-opacity:1;stroke:none" d="m 195.45257,219.14563 c 0,0 9.46115,1.52737 14.11711,2.51507 5.79545,1.22942 16.30412,6.21668 16.30412,6.21668 0,0 -12.04276,-2.0229 -17.58527,-2.89359 -4.63258,-0.72773 -12.83596,-5.83816 -12.83596,-5.83816 z" id="path3705-9" sodipodi:nodetypes="cscsc"/>
    <path style="fill:#8f5902;fill-opacity:1;fill-rule:nonzero;stroke:none" d="m 191.45749,234.78618 c 2.38314,0.13601 6.05889,1.16497 10.03682,2.91978 3.55337,1.56752 6.59809,3.38787 8.57072,5.01211 -1.29899,-1.7077 -4.46637,-3.87206 -8.45161,-5.61343 -4.20225,-1.83615 -8.13035,-2.67558 -10.15593,-2.31846 z" id="path3905-22"/>
    <path style="fill:#8f5902;fill-opacity:1;fill-rule:nonzero;stroke:none" d="m 191.51055,237.38547 c 1.92103,0.0985 4.88013,0.91215 8.07941,2.31069 2.85784,1.24929 5.30431,2.70524 6.88723,4.00789 -1.03933,-1.37328 -3.58306,-3.10654 -6.7883,-4.49419 -3.37979,-1.46319 -6.54328,-2.12254 -8.17834,-1.82439 z" id="path3905-22-1"/>
    <path style="fill:#8f5902;fill-opacity:1;fill-rule:nonzero;stroke:none" d="m 183.31081,246.45053 c 1.92102,0.0985 4.88012,0.91216 8.07941,2.3107 2.85783,1.24929 5.30431,2.70523 6.88723,4.00788 -1.03933,-1.37328 -3.58306,-3.10654 -6.78831,-4.49418 -3.3798,-1.46319 -6.54327,-2.12255 -8.17833,-1.8244 z" id="path3905-22-1-8"/>
    <path style="font-size:medium;font-style:normal;font-variant:normal;font-weight:normal;font-stretch:normal;text-indent:0;text-align:start;text-decoration:none;line-height:normal;letter-spacing:normal;word-spacing:normal;text-transform:none;direction:ltr;block-progression:tb;writing-mode:lr-tb;text-anchor:start;color:#000000;fill:#312c29;fill-opacity:1;fill-rule:nonzero;stroke:none;stroke-width:1px;marker:none;visibility:visible;display:inline;overflow:visible;enable-background:accumulate;font-family:Bitstream Vera Sans;-inkscape-font-specification:Bitstream Vera Sans" d="m 226.15257,227.43281 c -5.28308,-2.59585 -10.84933,-4.54507 -16.48553,-6.23856 l -14.24018,-2.57252 -0.19079,0.41307 c -1.83399,3.46332 -3.77659,7.29576 -3.57607,11.4787 0.001,0.0234 -0.0183,0.0443 -0.0171,0.0677 l 0.044,-0.003 c -0.0768,1.05116 0.54896,1.77316 0.76415,2.22535 0.11028,0.23175 0.12367,0.34496 0.0598,0.50519 -0.0639,0.16024 -0.26788,0.42641 -0.84927,0.79453 -0.22701,0.14373 -0.42404,0.3529 -0.50984,0.59196 -0.0858,0.23906 -0.069,0.48877 -0.0152,0.68804 0.1077,0.39854 0.32458,0.70233 0.4926,0.96041 0.12431,0.191 0.15139,0.26995 0.17889,0.31904 -0.0482,0.0181 -0.0499,0.0385 -0.17297,0.0573 -0.62123,0.0945 -1.12908,0.39482 -1.46956,0.79645 -0.34056,0.40154 -0.55243,0.88785 -0.71842,1.36089 -0.33197,0.94608 -0.54285,1.9092 -0.91058,2.35019 l -0.0204,0.0236 c -1.2194,1.67267 -2.63703,2.88241 -4.38185,3.93844 -0.009,0.006 -0.0116,0.018 -0.0204,0.0236 -1.91631,1.00294 -3.41478,1.70779 -5.35856,2.72605 l -0.74662,0.38803 0.67679,0.45923 c 5.53111,3.79006 11.04602,7.609 16.60216,11.37061 l 0.0474,0.0408 0.0236,0.0204 14.58319,6.57979 0.41307,0.19079 0.21451,-0.39265 c 2.45424,-4.40146 4.68649,-8.83507 7.37624,-13.11362 0.5299,-0.83633 1.06415,-1.73958 1.35198,-2.67115 0.28782,-0.93156 0.27613,-1.95933 -0.36614,-2.83114 l 0.0204,-0.0236 c -0.0916,-0.11435 -0.1173,-0.16754 -0.12496,-0.19011 0.016,-0.0125 0.15312,-0.12753 0.3769,-0.29403 0.23829,-0.17708 0.54765,-0.46184 0.66316,-0.91357 0.10427,-0.40804 -0.0633,-0.88375 -0.34916,-1.41427 -0.003,-0.007 0.024,-0.0171 0.0204,-0.0236 -0.11056,-0.41866 -0.0491,-0.48914 0.0862,-0.62686 0.13527,-0.13776 0.4584,-0.31697 0.85187,-0.46235 0.39347,-0.14539 0.85035,-0.2714 1.26563,-0.55967 0.36759,-0.25517 0.62604,-0.73761 0.72499,-1.27275 l 0.0677,0.0172 c 1.95347,-4.5755 2.83984,-9.50151 3.56254,-14.33609 l 0.0553,-0.44729 z m -1.1341,0.83792 c -0.70583,4.6326 -1.59721,9.27678 -3.42167,13.55008 l -0.0171,0.0677 -0.0138,0.11179 c -0.0229,0.34724 -0.14717,0.47802 -0.39473,0.64985 -0.24753,0.17187 -0.64086,0.30325 -1.05184,0.4551 -0.41098,0.15185 -0.83679,0.30405 -1.19131,0.66492 -0.3545,0.36088 -0.51661,0.95349 -0.34613,1.59904 l 0.007,0.0882 0.0474,0.0408 c 0.2867,0.47692 0.28983,0.73719 0.26238,0.84462 -0.0274,0.10742 -0.12139,0.17143 -0.30915,0.31114 -0.18784,0.13964 -0.45998,0.26907 -0.66241,0.62553 -0.10123,0.17822 -0.15291,0.4668 -0.10333,0.69461 0.0475,0.21834 0.15762,0.40225 0.31042,0.5973 0.007,0.008 0.0169,0.0119 0.0236,0.0204 0.41465,0.57952 0.41807,1.19323 0.18862,1.93588 -0.23278,0.7534 -0.73718,1.5956 -1.25987,2.42054 -2.64255,4.20346 -4.82598,8.49404 -7.18216,12.74462 l -14.12604,-6.39228 c -5.29646,-3.58683 -10.55099,-7.24856 -15.83392,-10.87391 1.57303,-0.80375 2.97437,-1.46037 4.65601,-2.34131 l 0.0204,-0.0236 c 1.83484,-1.10664 3.38845,-2.42206 4.69433,-4.20547 0.007,-0.008 0.0138,-0.0157 0.0204,-0.0236 0.62354,-0.76536 0.77507,-1.7954 1.06715,-2.62776 0.14757,-0.42053 0.30831,-0.78501 0.52106,-1.03597 0.21244,-0.25125 0.45695,-0.4023 0.85187,-0.46235 0.28404,-0.0432 0.50689,-0.11109 0.71241,-0.25253 0.20551,-0.14146 0.38067,-0.41181 0.39472,-0.64985 0.0281,-0.4761 -0.22953,-0.73734 -0.40773,-1.01106 -0.17821,-0.27371 -0.32538,-0.55009 -0.36107,-0.68215 -0.0178,-0.066 -0.0276,-0.0627 -0.027,-0.0644 8e-4,-0.002 0.0162,-0.0179 0.10521,-0.0743 0.67128,-0.42501 1.06744,-0.84428 1.25382,-1.31221 0.18645,-0.46787 0.0718,-0.92702 -0.0953,-1.27808 -0.33414,-0.70213 -0.773,-1.1559 -0.70762,-1.76424 l -0.003,-0.044 0.0204,-0.0236 c -0.19825,-3.69544 1.49476,-7.2342 3.24512,-10.56769 0.71701,0.44166 2.02229,1.2545 3.98072,2.27365 2.64853,1.37826 5.85804,2.85167 8.30689,3.23637 5.22083,0.82013 15.59209,2.57108 16.8259,2.77864 l 4e-5,4e-5 z m -2.9724,-1.52895 c -3.44773,-0.57684 -9.36642,-1.58095 -13.68503,-2.25937 -0.44844,-0.0704 -0.947,-0.20422 -1.46683,-0.35599 l -3.96894,-1.52115 c -0.87503,-0.40019 -1.7423,-0.82826 -2.55276,-1.25001 -1.1981,-0.62349 -1.33475,-0.71989 -2.14953,-1.19144 2.59177,0.42635 7.54166,1.21728 11.22822,1.99933 3.93838,0.83547 9.13001,3.03591 12.59487,4.57863 z" id="path2913" sodipodi:nodetypes="ccccsccssssssssssccssccccccccccsccssssssssccccccccssscccsssssssccccccsssssssssssssccccsscccccscscc"/>
  </g>
</svg>